<?xml version="1.0" standalone="no"?>
<svg xmlns:xlink="http://www.w3.org/1999/xlink" id="wave" style="transform:rotate(0deg); transition: 0.3s" viewBox="0 0 1440 490" version="1.1" xmlns="http://www.w3.org/2000/svg"><defs><linearGradient id="sw-gradient-0" x1="0" x2="0" y1="1" y2="0"><stop stop-color="rgba(209, 231, 221, 0.13)" offset="0%"/><stop stop-color="rgba(81.411, 241.709, 168.847, 0.22)" offset="100%"/></linearGradient></defs><path style="transform:translate(0, 0px); opacity:1" fill="url(#sw-gradient-0)" d="M0,343L30,359.3C60,376,120,408,180,424.7C240,441,300,441,360,408.3C420,376,480,310,540,245C600,180,660,114,720,114.3C780,114,840,180,900,196C960,212,1020,180,1080,155.2C1140,131,1200,114,1260,89.8C1320,65,1380,33,1440,16.3C1500,0,1560,0,1620,65.3C1680,131,1740,261,1800,326.7C1860,392,1920,392,1980,326.7C2040,261,2100,131,2160,65.3C2220,0,2280,0,2340,24.5C2400,49,2460,98,2520,130.7C2580,163,2640,180,2700,187.8C2760,196,2820,196,2880,187.8C2940,180,3000,163,3060,138.8C3120,114,3180,82,3240,122.5C3300,163,3360,278,3420,334.8C3480,392,3540,392,3600,367.5C3660,343,3720,294,3780,269.5C3840,245,3900,245,3960,277.7C4020,310,4080,376,4140,383.8C4200,392,4260,343,4290,318.5L4320,294L4320,490L4290,490C4260,490,4200,490,4140,490C4080,490,4020,490,3960,490C3900,490,3840,490,3780,490C3720,490,3660,490,3600,490C3540,490,3480,490,3420,490C3360,490,3300,490,3240,490C3180,490,3120,490,3060,490C3000,490,2940,490,2880,490C2820,490,2760,490,2700,490C2640,490,2580,490,2520,490C2460,490,2400,490,2340,490C2280,490,2220,490,2160,490C2100,490,2040,490,1980,490C1920,490,1860,490,1800,490C1740,490,1680,490,1620,490C1560,490,1500,490,1440,490C1380,490,1320,490,1260,490C1200,490,1140,490,1080,490C1020,490,960,490,900,490C840,490,780,490,720,490C660,490,600,490,540,490C480,490,420,490,360,490C300,490,240,490,180,490C120,490,60,490,30,490L0,490Z"/><defs><linearGradient id="sw-gradient-1" x1="0" x2="0" y1="1" y2="0"><stop stop-color="rgba(49.506, 107.379, 81.073, 0.09)" offset="0%"/><stop stop-color="rgba(28.157, 230.325, 138.431, 0.17)" offset="100%"/></linearGradient></defs><path style="transform:translate(0, 50px); opacity:0.9" fill="url(#sw-gradient-1)" d="M0,98L30,106.2C60,114,120,131,180,171.5C240,212,300,278,360,318.5C420,359,480,376,540,351.2C600,327,660,261,720,196C780,131,840,65,900,65.3C960,65,1020,131,1080,187.8C1140,245,1200,294,1260,326.7C1320,359,1380,376,1440,318.5C1500,261,1560,131,1620,73.5C1680,16,1740,33,1800,57.2C1860,82,1920,114,1980,114.3C2040,114,2100,82,2160,122.5C2220,163,2280,278,2340,294C2400,310,2460,229,2520,196C2580,163,2640,180,2700,196C2760,212,2820,229,2880,261.3C2940,294,3000,343,3060,351.2C3120,359,3180,327,3240,326.7C3300,327,3360,359,3420,375.7C3480,392,3540,392,3600,400.2C3660,408,3720,425,3780,432.8C3840,441,3900,441,3960,432.8C4020,425,4080,408,4140,383.8C4200,359,4260,327,4290,310.3L4320,294L4320,490L4290,490C4260,490,4200,490,4140,490C4080,490,4020,490,3960,490C3900,490,3840,490,3780,490C3720,490,3660,490,3600,490C3540,490,3480,490,3420,490C3360,490,3300,490,3240,490C3180,490,3120,490,3060,490C3000,490,2940,490,2880,490C2820,490,2760,490,2700,490C2640,490,2580,490,2520,490C2460,490,2400,490,2340,490C2280,490,2220,490,2160,490C2100,490,2040,490,1980,490C1920,490,1860,490,1800,490C1740,490,1680,490,1620,490C1560,490,1500,490,1440,490C1380,490,1320,490,1260,490C1200,490,1140,490,1080,490C1020,490,960,490,900,490C840,490,780,490,720,490C660,490,600,490,540,490C480,490,420,490,360,490C300,490,240,490,180,490C120,490,60,490,30,490L0,490Z"/></svg>